<?xml version="1.0" encoding="UTF-8"?>
<svg width="77px" height="20px" viewBox="0 0 77 20" version="1.1" xmlns="http://www.w3.org/2000/svg" xmlns:xlink="http://www.w3.org/1999/xlink">
    <!-- Generator: Sketch 48.2 (47327) - http://www.bohemiancoding.com/sketch -->
    <title>Hearth</title>
    <desc>Created with Sketch.</desc>
    <defs>
        <radialGradient cx="109.232926%" cy="-56.2386056%" fx="109.232926%" fy="-56.2386056%" r="534.952276%" gradientTransform="translate(1.092329,-0.562386),scale(0.250330,1.000000),rotate(90.000000),translate(-1.092329,0.562386)" id="radialGradient-1">
            <stop stop-color="#F5582E" offset="0%"></stop>
            <stop stop-color="#8000D4" offset="100%"></stop>
        </radialGradient>
    </defs>
    <g id="Logo" stroke="none" stroke-width="1" fill="none" fill-rule="evenodd">
        <path d="M0,19.5586304 L0,2.1518801 L3.14357102,2.1518801 L3.14357102,9.15184236 L10.3250048,9.15184236 L10.3250048,2.1518801 L13.4685759,2.1518801 L13.4685759,19.5586304 L10.3250048,19.5586304 L10.3250048,11.8400408 L3.14357102,11.8400408 L3.14357102,19.5586304 L0,19.5586304 Z M23.3870844,19.8780203 C22.4656883,19.8780203 21.6075381,19.7227628 20.8126082,19.4122433 C20.0176782,19.1017238 19.3221249,18.6536952 18.7259274,18.0681441 C18.1297299,17.482593 17.6645222,16.7684088 17.3302903,15.9255701 C16.9960583,15.0827314 16.8289449,14.1201353 16.8289449,13.037753 C16.8289449,11.9731146 17.0005749,11.0149544 17.3438401,10.1632438 C17.6871054,9.31153306 18.1432799,8.59291294 18.7123775,8.00736184 C19.2814751,7.42181074 19.9363792,6.96934622 20.6771094,6.64995471 C21.4178396,6.3305632 22.176625,6.17086984 22.9534884,6.17086984 C23.856818,6.17086984 24.651736,6.32169135 25.3382664,6.62333888 C26.0247969,6.92498642 26.5984025,7.35083538 27.0591006,7.90089854 C27.5197986,8.45096169 27.8675753,9.10747884 28.102441,9.87046967 C28.3373066,10.6334605 28.4547377,11.4674147 28.4547377,12.3723573 C28.4547377,12.6740049 28.441188,12.9579042 28.4140881,13.2240638 C28.3869882,13.4902233 28.3553721,13.7031478 28.319239,13.8628436 L19.8641169,13.8628436 C20.0086496,15.0339458 20.4286916,15.9344389 21.1242553,16.5643499 C21.819819,17.194261 22.7095853,17.5092118 23.7935807,17.5092118 C24.3717116,17.5092118 24.9091846,17.4249292 25.4060158,17.2563614 C25.9028471,17.0877937 26.3951543,16.8526896 26.8829522,16.551042 L27.9398425,18.4673815 C27.3075118,18.8754929 26.6029253,19.2126233 25.8260619,19.4787829 C25.0491986,19.7449425 24.2362142,19.8780203 23.3870844,19.8780203 Z M19.8370172,11.7868091 L25.7447627,11.7868091 C25.7447627,10.7754027 25.5234503,9.98137183 25.0808188,9.40469271 C24.6381874,8.8280136 23.9561838,8.53967836 23.0347877,8.53967836 C22.2398577,8.53967836 21.5443044,8.81470582 20.9481069,9.36476897 C20.3519094,9.91483213 19.9815499,10.7221708 19.8370172,11.7868091 Z M34.3353835,19.8780203 C33.1610551,19.8780203 32.2125734,19.5275821 31.4899097,18.8266952 C30.7672461,18.1258082 30.4059197,17.1986996 30.4059197,16.0453413 C30.4059197,15.3533264 30.5549669,14.7367326 30.8530656,14.1955414 C31.1511644,13.6543502 31.6208887,13.1885779 32.2622526,12.7982105 C32.9036166,12.4078431 33.716601,12.0795846 34.7012301,11.813425 C35.6858593,11.5472654 36.8646867,11.3432128 38.2377475,11.201261 C38.219681,10.8641255 38.1699986,10.5403028 38.0886989,10.2297833 C38.0073993,9.9192638 37.8719019,9.64423634 37.6822027,9.40469271 C37.4925035,9.16514908 37.2440916,8.97884016 36.9369595,8.84576036 C36.6298275,8.71268057 36.2504348,8.64614167 35.79877,8.64614167 C35.1483728,8.64614167 34.511535,8.77034761 33.8882376,9.01876323 C33.2649403,9.26717885 32.655202,9.56882186 32.0590045,9.92370132 L30.920815,7.87428271 C31.6615452,7.41293942 32.4925959,7.01370602 33.413992,6.67657054 C34.3353881,6.33943505 35.3290357,6.17086984 36.3949645,6.17086984 C38.0570909,6.17086984 39.2991503,6.65438585 40.1211802,7.62143236 C40.9432101,8.58847888 41.3542188,9.98579578 41.3542188,11.813425 L41.3542188,19.5586304 L38.7797425,19.5586304 L38.5629445,18.1213758 L38.4545455,18.1213758 C37.8583481,18.618207 37.2215103,19.0351841 36.5440132,19.3723196 C35.866516,19.7094551 35.1303135,19.8780203 34.3353835,19.8780203 Z M35.3380743,17.4825959 C35.880072,17.4825959 36.3723792,17.35839 36.8150107,17.1099744 C37.2576421,16.8615587 37.731883,16.5066846 38.2377475,16.0453413 L38.2377475,13.1176005 C37.334418,13.2240643 36.5756326,13.3660139 35.9613685,13.5434537 C35.3471045,13.7208934 34.8502807,13.9205101 34.4708823,14.1423098 C34.0914839,14.3641094 33.8204891,14.6169572 33.6578898,14.9008608 C33.4952904,15.1847644 33.413992,15.4864074 33.413992,15.8057989 C33.413992,16.39135 33.5946552,16.8171989 33.955987,17.0833585 C34.3173188,17.3495181 34.77801,17.4825959 35.3380743,17.4825959 Z M45.0939843,19.5586304 L45.0939843,6.49025975 L47.6684606,6.49025975 L47.8852586,8.80583662 L47.9936576,8.80583662 C48.463389,7.95412593 49.032478,7.30204471 49.7009419,6.84957341 C50.3694057,6.3971021 51.0559259,6.17086984 51.7605229,6.17086984 C52.3928536,6.17086984 52.8987105,6.25958837 53.2781089,6.4370281 L52.7361139,9.09861071 C52.5012482,9.02763482 52.2844524,8.9744037 52.0857199,8.93891575 C51.8869874,8.90342781 51.6430921,8.8856841 51.3540266,8.8856841 C50.8300955,8.8856841 50.2790728,9.0853008 49.7009419,9.48454019 C49.122811,9.88377958 48.6259872,10.5802201 48.2104556,11.5738825 L48.2104556,19.5586304 L45.0939843,19.5586304 Z M59.890448,19.8780203 C59.1135846,19.8780203 58.4586805,19.7626862 57.9257161,19.5320145 C57.3927517,19.3013429 56.95916,18.9775202 56.6249281,18.5605369 C56.2906961,18.1435535 56.0468008,17.6467297 55.8932348,17.0700506 C55.7396688,16.4933715 55.6628869,15.8501621 55.6628869,15.1404032 L55.6628869,8.91229993 L53.7659044,8.91229993 L53.7659044,6.62333888 L55.8254854,6.49025975 L56.2048819,2.92373906 L58.806458,2.92373906 L58.806458,6.49025975 L62.1939267,6.49025975 L62.1939267,8.91229993 L58.806458,8.91229993 L58.806458,15.1404032 C58.806458,16.6663849 59.429746,17.4293643 60.6763407,17.4293643 C60.9112064,17.4293643 61.1505851,17.4027487 61.3944841,17.3495168 C61.6383831,17.2962849 61.8596955,17.2253101 62.058428,17.1365902 L62.600423,19.3989354 C62.2390912,19.5231432 61.8280824,19.6340414 61.3673843,19.7316332 C60.9066863,19.8292251 60.4143791,19.8780203 59.890448,19.8780203 Z M64.985201,19.5586304 L64.985201,0.767857143 L68.1016723,0.767857143 L68.1016723,5.61193749 L67.9932733,8.14044097 C68.5533376,7.62586576 69.172109,7.16896532 69.8496062,6.76972593 C70.5271033,6.37048654 71.3265379,6.17086984 72.2479341,6.17086984 C73.6751947,6.17086984 74.7140081,6.61889843 75.3644053,7.51496906 C76.0148026,8.41103968 76.3399963,9.69302249 76.3399963,11.3609559 L76.3399963,19.5586304 L73.2235251,19.5586304 L73.2235251,11.7601933 C73.2235251,10.677811 73.0609282,9.9148316 72.7357296,9.47123228 C72.4105309,9.02763296 71.8775745,8.80583662 71.1368443,8.80583662 C70.5587134,8.80583662 70.0483399,8.94335035 69.6057084,9.21838193 C69.1630769,9.49341351 68.6617366,9.89708283 68.1016723,10.429402 L68.1016723,19.5586304 L64.985201,19.5586304 Z" id="Hearth" fill="url(#radialGradient-1)"></path>
    </g>
</svg>