<?xml version="1.0" encoding="UTF-8"?>
<svg width="57px" height="16px" viewBox="0 0 57 16" version="1.1" xmlns="http://www.w3.org/2000/svg" xmlns:xlink="http://www.w3.org/1999/xlink">
    <!-- Generator: Sketch 48.1 (47250) - http://www.bohemiancoding.com/sketch -->
    <title>Hearth</title>
    <desc>Created with Sketch.</desc>
    <defs>
        <rect id="path-1" x="-1" y="0" width="939" height="41"></rect>
        <filter x="-0.9%" y="-14.6%" width="101.7%" height="139.0%" filterUnits="objectBoundingBox" id="filter-2">
            <feMorphology radius="1" operator="dilate" in="SourceAlpha" result="shadowSpreadOuter1"></feMorphology>
            <feOffset dx="0" dy="2" in="shadowSpreadOuter1" result="shadowOffsetOuter1"></feOffset>
            <feGaussianBlur stdDeviation="2" in="shadowOffsetOuter1" result="shadowBlurOuter1"></feGaussianBlur>
            <feComposite in="shadowBlurOuter1" in2="SourceAlpha" operator="out" result="shadowBlurOuter1"></feComposite>
            <feColorMatrix values="0 0 0 0 0.955197704   0 0 0 0 0.955197704   0 0 0 0 0.955197704  0 0 0 0.5 0" type="matrix" in="shadowBlurOuter1"></feColorMatrix>
        </filter>
        <radialGradient cx="109.232926%" cy="-56.2386056%" fx="109.232926%" fy="-56.2386056%" r="534.952276%" gradientTransform="translate(1.092329,-0.562386),scale(0.254881,1.000000),rotate(90.000000),translate(-1.092329,0.562386)" id="radialGradient-3">
            <stop stop-color="#F5582E" offset="0%"></stop>
            <stop stop-color="#8000D4" offset="100%"></stop>
        </radialGradient>
    </defs>
    <g id="Calculators-home-Copy-8" stroke="none" stroke-width="1" fill="none" fill-rule="evenodd" transform="translate(-23.000000, -12.000000)">
        <g id="Rectangle-2">
            <use fill="black" fill-opacity="1" filter="url(#filter-2)" xlink:href="#path-1"></use>
            <use fill="#FFFFFF" fill-rule="evenodd" xlink:href="#path-1"></use>
            <rect stroke="#E3E3E3" stroke-width="1" x="-1.5" y="-0.5" width="940" height="42"></rect>
        </g>
        <path d="M23.66,27 L23.66,13.92 L25.98,13.92 L25.98,19.18 L31.28,19.18 L31.28,13.92 L33.6,13.92 L33.6,27 L31.28,27 L31.28,21.2 L25.98,21.2 L25.98,27 L23.66,27 Z M40.92,27.24 C40.2399966,27.24 39.6066696,27.1233345 39.02,26.89 C38.4333304,26.6566655 37.9200022,26.3200022 37.48,25.88 C37.0399978,25.4399978 36.6966679,24.9033365 36.45,24.27 C36.2033321,23.6366635 36.08,22.9133374 36.08,22.1 C36.08,21.299996 36.2066654,20.5800032 36.46,19.94 C36.7133346,19.2999968 37.0499979,18.7600022 37.47,18.32 C37.8900021,17.8799978 38.3733306,17.5400012 38.92,17.3 C39.4666694,17.0599988 40.0266638,16.94 40.6,16.94 C41.26667,16.94 41.8533308,17.0533322 42.36,17.28 C42.8666692,17.5066678 43.2899983,17.8266646 43.63,18.24 C43.9700017,18.6533354 44.2266658,19.1466638 44.4,19.72 C44.5733342,20.2933362 44.66,20.9199966 44.66,21.6 C44.66,21.8266678 44.6500001,22.039999 44.63,22.24 C44.6099999,22.440001 44.5866668,22.5999994 44.56,22.72 L38.32,22.72 C38.4266672,23.6000044 38.7366641,24.2766643 39.25,24.75 C39.7633359,25.2233357 40.419996,25.46 41.22,25.46 C41.6466688,25.46 42.0433315,25.3966673 42.41,25.27 C42.7766685,25.1433327 43.1399982,24.9666678 43.5,24.74 L44.28,26.18 C43.813331,26.4866682 43.2933362,26.739999 42.72,26.94 C42.1466638,27.140001 41.5466698,27.24 40.92,27.24 Z M38.3,21.16 L42.66,21.16 C42.66,20.3999962 42.4966683,19.8033355 42.17,19.37 C41.8433317,18.9366645 41.3400034,18.72 40.66,18.72 C40.0733304,18.72 39.5600022,18.9266646 39.12,19.34 C38.6799978,19.7533354 38.4066672,20.359996 38.3,21.16 Z M49,27.24 C48.133329,27.24 47.433336,26.9766693 46.9,26.45 C46.366664,25.9233307 46.1,25.226671 46.1,24.36 C46.1,23.8399974 46.2099989,23.3766687 46.43,22.97 C46.6500011,22.5633313 46.9966643,22.2133348 47.47,21.92 C47.9433357,21.6266652 48.5433297,21.380001 49.27,21.18 C49.9966703,20.979999 50.8666616,20.8266672 51.88,20.72 C51.8666666,20.4666654 51.8300003,20.2233345 51.77,19.99 C51.7099997,19.7566655 51.6100007,19.5500009 51.47,19.37 C51.3299993,19.1899991 51.1466678,19.0500005 50.92,18.95 C50.6933322,18.8499995 50.413335,18.8 50.08,18.8 C49.5999976,18.8 49.1300023,18.8933324 48.67,19.08 C48.2099977,19.2666676 47.7600022,19.493332 47.32,19.76 L46.48,18.22 C47.0266694,17.8733316 47.6399966,17.5733346 48.32,17.32 C49.0000034,17.0666654 49.7333294,16.94 50.52,16.94 C51.7466728,16.94 52.6633303,17.3033297 53.27,18.03 C53.8766697,18.7566703 54.18,19.8066598 54.18,21.18 L54.18,27 L52.28,27 L52.12,25.92 L52.04,25.92 C51.5999978,26.2933352 51.1300025,26.6066654 50.63,26.86 C50.1299975,27.1133346 49.5866696,27.24 49,27.24 Z M49.74,25.44 C50.140002,25.44 50.5033317,25.3466676 50.83,25.16 C51.1566683,24.9733324 51.5066648,24.7066684 51.88,24.36 L51.88,22.16 C51.21333,22.2400004 50.6533356,22.346666 50.2,22.48 C49.7466644,22.613334 49.3800014,22.7633325 49.1,22.93 C48.8199986,23.0966675 48.6200006,23.2866656 48.5,23.5 C48.3799994,23.7133344 48.32,23.9399988 48.32,24.18 C48.32,24.6200022 48.453332,24.939999 48.72,25.14 C48.986668,25.340001 49.3266646,25.44 49.74,25.44 Z M56.94,27 L56.94,17.18 L58.84,17.18 L59,18.92 L59.08,18.92 C59.4266684,18.2799968 59.8466642,17.7900017 60.34,17.45 C60.8333358,17.1099983 61.3399974,16.94 61.86,16.94 C62.326669,16.94 62.6999986,17.006666 62.98,17.14 L62.58,19.14 C62.4066658,19.0866664 62.2466674,19.0466668 62.1,19.02 C61.9533326,18.9933332 61.7733344,18.98 61.56,18.98 C61.1733314,18.98 60.7666688,19.1299985 60.34,19.43 C59.9133312,19.7300015 59.5466682,20.2533296 59.24,21 L59.24,27 L56.94,27 Z M67.86,27.24 C67.2866638,27.24 66.8033353,27.1533342 66.41,26.98 C66.0166647,26.8066658 65.6966679,26.5633349 65.45,26.25 C65.2033321,25.9366651 65.0233339,25.5633355 64.91,25.13 C64.7966661,24.6966645 64.74,24.213336 64.74,23.68 L64.74,19 L63.34,19 L63.34,17.28 L64.86,17.18 L65.14,14.5 L67.06,14.5 L67.06,17.18 L69.56,17.18 L69.56,19 L67.06,19 L67.06,23.68 C67.06,24.8266724 67.5199954,25.4 68.44,25.4 C68.6133342,25.4 68.7899991,25.3800002 68.97,25.34 C69.1500009,25.2999998 69.3133326,25.246667 69.46,25.18 L69.86,26.88 C69.593332,26.9733338 69.2900017,27.0566663 68.95,27.13 C68.6099983,27.2033337 68.2466686,27.24 67.86,27.24 Z M71.62,27 L71.62,12.88 L73.92,12.88 L73.92,16.52 L73.84,18.42 C74.2533354,18.0333314 74.7099975,17.6900015 75.21,17.39 C75.7100025,17.0899985 76.2999966,16.94 76.98,16.94 C78.0333386,16.94 78.7999976,17.2766633 79.28,17.95 C79.7600024,18.6233367 80,19.5866604 80,20.84 L80,27 L77.7,27 L77.7,21.14 C77.7,20.3266626 77.5800012,19.753335 77.34,19.42 C77.0999988,19.086665 76.7066694,18.92 76.16,18.92 C75.7333312,18.92 75.3566683,19.0233323 75.03,19.23 C74.7033317,19.4366677 74.3333354,19.739998 73.92,20.14 L73.92,27 L71.62,27 Z" id="Hearth" fill="url(#radialGradient-3)"></path>
    </g>
</svg>